# xmcd
#
# Track frame offsets:
#	150
#	15563
#	30912
#	31730
#
# Disc length: 440 seconds
# Revision: 0
# Processed by: cddbd v1.5.2PL0 Copyright (c) Steve Scherf et al.
# Submitted via: dBpowerAMP V12.0
#
DISCID=1b01b604
DTITLE=Jennette McCurdy - Not That Far Away
DYEAR=2010
DGENRE=Country
TTITLE0=Not That Far Away
TTITLE1=Not That Far Away
TTITLE2=Research Hook #1
TTITLE3=Research Hook #2
EXTD=
EXTT0=
EXTT1=
EXTT2=
EXTT3=
PLAYORDER=
